<svg width="800" height="800" viewBox="0 0 800 800" fill="none" xmlns="http://www.w3.org/2000/svg">
<g clip-path="url(#clip0_180_125)">
<path d="M632.425 449.601C627.325 437.501 621.35 425.901 614.45 414.826V213.801C614.575 157.176 591.925 102.726 551.675 62.6257C511.7 22.4007 457.275 -0.149256 400.5 0.000743573C343.7 -0.124256 289.3 22.4007 249.2 62.6257C208.975 102.601 186.425 157.151 186.575 213.801V243.101H272.25V213.801C272.25 179.701 285.525 147.401 309.875 123.176C333.85 99.1007 366.5 85.5507 400.5 85.6757C471.2 85.8007 528.6 143.101 528.725 213.801V330.876C489.8 307.676 445.25 295.451 399.95 295.576C333.025 295.451 268.825 322.001 221.55 369.401C174.175 416.676 147.625 480.876 147.75 547.801C147.625 614.601 174.175 678.776 221.55 726.026C268.825 773.426 333.025 800.126 399.95 800.126C466.875 800.126 531.075 773.551 578.35 726.151C625.725 678.876 652.275 614.676 652.15 547.776C652.15 513.776 645.525 480.701 632.375 449.576L632.425 449.601ZM400 714.326C308.2 714.326 233.475 639.601 233.475 547.801C233.475 456.001 308.2 381.276 400 381.276C491.8 381.276 566.525 455.876 566.525 547.801C566.525 639.601 491.8 714.326 400 714.326ZM471.5 548.576C471.5 642.701 330.2 642.701 330.2 548.576C330.2 454.301 471.5 454.301 471.5 548.576Z" fill="#218DF1"/>
</g>
<defs>
<clipPath id="clip0_180_125">
<rect width="800" height="800" fill="white"/>
</clipPath>
</defs>
</svg>
