<svg width="538" height="800" viewBox="0 0 538 800" fill="none" xmlns="http://www.w3.org/2000/svg">
<path d="M514.608 349.987L513.622 350.004C491.516 350.797 464.102 351.599 436.453 352.399C410.625 353.157 384.591 353.929 362.468 354.695C375.198 298.681 399.883 243.024 423.799 189.078C445.451 140.271 467.827 89.7949 481.052 39.606L481.323 38.6205C481.449 38.1825 481.567 37.7396 481.684 37.3265C486.529 31.0122 487.582 23.0854 484.415 15.638C480.497 6.43703 470.851 0 460.943 0C455.148 0 449.639 2.1136 445.03 6.12347C397.666 47.2392 363.691 81.3256 335.073 116.392C252.652 210.283 157.439 306.024 44.0162 409.06C43.4903 409.531 43.0689 410.002 43.1602 410.002C35.7941 416.574 33.2242 427.94 36.9172 437.643C40.4427 446.919 48.6316 452.462 58.8081 452.462C103.529 452.462 150.942 452.556 198.832 453.575C136.389 579.311 75.0716 675.83 6.42927 756.52C1.28463 762.569 -0.593391 770.018 1.07891 777.567C2.46088 790.202 12.2243 800 23.577 800C28.1758 800 32.7929 798.374 36.9255 795.298C200.529 673.479 373.134 542.243 526.949 395.197C528.053 394.149 529.048 393.015 529.957 391.765C536.967 385.055 539.442 374.066 535.921 364.6C532.537 355.447 524.567 349.987 514.608 349.987ZM258.142 441.831C261.9 433.995 261.445 425.37 256.899 418.141C252.206 410.696 243.762 405.875 235.375 405.875C234.245 405.875 233.122 405.959 232.026 406.127C192.868 404.902 154.524 404.498 120.32 404.333C210.639 320.353 288.729 241.057 358.603 162.424C360.363 161.123 361.871 159.665 363.185 157.993C364.668 156.085 366.209 154.218 367.734 152.373L372.52 146.774C373.371 145.835 374.045 144.858 374.685 143.876C383.025 133.892 391.88 123.931 401.383 113.862C394.079 132.006 386.43 150.189 378.914 168.011C351.57 232.982 323.28 300.155 310.39 368.444C310.221 369.371 310.121 370.275 310.045 371.148C307.214 378.642 307.954 387.383 312.09 393.911C316.193 400.365 323.143 404.068 331.181 404.068L332.199 404.038C352.259 403.296 378.349 402.563 404.322 401.83C420.229 401.375 436.091 400.932 450.506 400.486C344.382 497.936 232.223 586.974 138.324 658.76C179.204 595.764 218.655 524.308 258.142 441.831Z" fill="#218DF1"/>
</svg>
